<svg width="64" height="64" viewBox="0 0 64 64" fill="none" xmlns="http://www.w3.org/2000/svg">
<g filter="url(#filter0_d_22_4084)">
<path fill-rule="evenodd" clip-rule="evenodd" d="M10 20.9564C10 20.9577 10 20.9589 10 20.9602C10.0001 23.9407 10.2305 27.6106 11.0165 31.4564H32V8C31.2549 8 30.5098 8.15738 29.8162 8.47213C27.5286 9.51022 23.9034 11.0801 21.2305 11.8803C19.105 12.5166 16.3772 13.0266 14.1987 13.3756C11.9923 13.729 10.2251 15.4148 10.0954 17.6456C10.0395 18.6066 10 19.7224 10 20.9564Z" fill="#C8D1EA"/>
<path fill-rule="evenodd" clip-rule="evenodd" d="M32.0001 55.2536C31.534 55.2536 31.068 55.1809 30.6275 55.0355C17.9508 50.8495 12.8958 40.6505 11.0166 31.4564L32.0001 31.4564V55.2536Z" fill="#336DFF"/>
<path fill-rule="evenodd" clip-rule="evenodd" d="M52.9835 31.4564H32V8C32.7451 8 33.4902 8.15738 34.1838 8.47213C36.4714 9.51022 40.0966 11.0801 42.7695 11.8803C44.895 12.5166 47.6228 13.0266 49.8013 13.3756C52.0077 13.729 53.7749 15.4148 53.9046 17.6456C54.0954 20.9283 54.0954 26.0164 52.9835 31.4564Z" fill="#336DFF"/>
<path fill-rule="evenodd" clip-rule="evenodd" d="M52.9835 31.4564C51.1043 40.6505 46.0492 50.8495 33.3725 55.0355C32.9321 55.1809 32.466 55.2536 32 55.2536V31.4564H52.9835Z" fill="#C8D1EA"/>
<path d="M51.0937 30.1179C52.2216 31.1503 52.2216 32.8497 51.0937 33.8821C47.6603 37.0249 39.955 43 31 43C22.045 43 14.3397 37.0249 10.9063 33.8821C9.77835 32.8497 9.77835 31.1503 10.9063 30.1179C14.3397 26.9751 22.045 21 31 21C39.955 21 47.6603 26.9751 51.0937 30.1179Z" fill="#C8D1EA"/>
<circle cx="31" cy="32" r="7" fill="#336DFF"/>
<path d="M36 30C37.1046 30 38 29.1046 38 28C38 26.8954 37.1046 26 36 26C34.8954 26 34 26.8954 34 28C34 29.1046 34.8954 30 36 30Z" fill="white"/>
<path d="M34 31C34.5523 31 35 30.5523 35 30C35 29.4477 34.5523 29 34 29C33.4477 29 33 29.4477 33 30C33 30.5523 33.4477 31 34 31Z" fill="white"/>
</g>
<defs>
<filter id="filter0_d_22_4084" x="-4" y="0" width="72" height="71.2536" filterUnits="userSpaceOnUse" color-interpolation-filters="sRGB">
<feFlood flood-opacity="0" result="BackgroundImageFix"/>
<feColorMatrix in="SourceAlpha" type="matrix" values="0 0 0 0 0 0 0 0 0 0 0 0 0 0 0 0 0 0 127 0" result="hardAlpha"/>
<feOffset dy="4"/>
<feGaussianBlur stdDeviation="2"/>
<feComposite in2="hardAlpha" operator="out"/>
<feColorMatrix type="matrix" values="0 0 0 0 0 0 0 0 0 0 0 0 0 0 0 0 0 0 0.25 0"/>
<feBlend mode="normal" in2="BackgroundImageFix" result="effect1_dropShadow_22_4084"/>
<feBlend mode="normal" in="SourceGraphic" in2="effect1_dropShadow_22_4084" result="shape"/>
</filter>
</defs>
</svg>
